<svg xmlns="http://www.w3.org/2000/svg" width="360" height="640" viewBox="0 0 360 640">
    <defs>
        <style>
            .a{fill:none;}.b{clip-path:url(#a);}.c{fill:#9649cb;}.d{opacity:0.4;fill:url(#b);}.e{opacity:0.6;fill:url(#c);}.f{fill:#fff;}.g{fill:#ff6b6b;}
        </style>
        <clipPath id="a">
            <rect class="a" width="360" height="640" />
        </clipPath>
        <linearGradient id="b" x1="0.5" x2="0.582" y2="0.568" gradientUnits="objectBoundingBox">
            <stop offset="0" stop-color="#ff6b6b" />
            <stop offset="0.329" stop-color="#ff6b6b" stop-opacity="0.427" />
            <stop offset="1" stop-color="#ff6b6b" stop-opacity="0" />
        </linearGradient>
        <linearGradient id="c" x1="0.562" x2="0.609" y2="0.531" gradientUnits="objectBoundingBox">
            <stop offset="0" stop-color="#ff6b6b" />
            <stop offset="0.201" stop-color="#ff6b6b" stop-opacity="0.427" />
            <stop offset="1" stop-color="#ff6b6b" stop-opacity="0" />
        </linearGradient>
    </defs>
    <g transform="translate(-820.24 -17.42)">
        <g transform="translate(820.24 17.42)">
            <g class="b">
                <rect class="c" width="369.739" height="659.846"
                    transform="translate(-4.415 -8.555)" />
                <path class="d"
                    d="M-351.61,1027.8c67.009-27.5,138.5-80.2,294.837-22.915s259.1-9.14,259.1-9.14v224.565H-331.528Z"
                    transform="translate(178.925 -540.379)" />
                <path class="e"
                    d="M350.511,1045.675c-67.009-27.484-138.5-88.822-294.832-31.573S-203.42,972-203.42,972v246.827H330.433Z"
                    transform="translate(103.515 -536.692)" />
            </g>
            <path class="f"
                d="M222.427,579.309a7.625,7.625,0,0,0-1.526,4.823v6.885h9.741a4.323,4.323,0,0,1,3.2,1.231,4.208,4.208,0,0,1,1.231,3.1,4.028,4.028,0,0,1-1.231,3.047,4.413,4.413,0,0,1-3.2,1.181H220.9v37.39a4.633,4.633,0,0,1-1.331,3.342,4.5,4.5,0,0,1-3.392,1.381,4.393,4.393,0,0,1-3.3-1.381,4.628,4.628,0,0,1-1.326-3.342v-37.41h-6.1a4.458,4.458,0,0,1-3.152-1.181,3.958,3.958,0,0,1-1.276-3.047,4.133,4.133,0,0,1,1.276-3.1A4.373,4.373,0,0,1,205.456,591h6.1v-6.865q0-6.89,4.428-10.972t12.508-4.083a13.464,13.464,0,0,1,5.9,1.231A3.929,3.929,0,0,1,236.952,574a4.4,4.4,0,0,1-1.131,3.1,3.552,3.552,0,0,1-2.707,1.231,15.951,15.951,0,0,1-2.161-.4,14.507,14.507,0,0,0-3.742-.59A5.676,5.676,0,0,0,222.427,579.309Z"
                transform="translate(-102.498 -290.244)" />
            <path class="f"
                d="M328.189,649.557a25.017,25.017,0,0,1-9.4,9.541,26.778,26.778,0,0,1-26.267,0,24.986,24.986,0,0,1-9.4-9.541,27.518,27.518,0,0,1-3.442-13.774,28.068,28.068,0,0,1,3.442-13.854,24.806,24.806,0,0,1,9.4-9.641,26.743,26.743,0,0,1,26.268,0,24.842,24.842,0,0,1,9.4,9.641,28.074,28.074,0,0,1,3.447,13.874A27.518,27.518,0,0,1,328.189,649.557Zm-8.115-23.271a16.15,16.15,0,0,0-28.829,0,19.977,19.977,0,0,0-2.211,9.506,19.478,19.478,0,0,0,2.211,9.346,16.208,16.208,0,0,0,28.829,0,19.479,19.479,0,0,0,2.211-9.346A19.978,19.978,0,0,0,320.073,626.287Z"
                transform="translate(-142.749 -310.327)" />
            <path class="f"
                d="M414.689,640.116a4.558,4.558,0,0,1-3.347,1.381,4.393,4.393,0,0,1-3.3-1.381,4.628,4.628,0,0,1-1.326-3.342V573.412a4.7,4.7,0,0,1,4.723-4.723,4.388,4.388,0,0,1,3.292,1.376,4.653,4.653,0,0,1,1.331,3.347v63.362A4.553,4.553,0,0,1,414.689,640.116Z"
                transform="translate(-207.066 -290.049)" />
            <path class="f"
                d="M488.746,657.92a4.968,4.968,0,0,1-4.723,4.823,4.688,4.688,0,0,1-3.838-2.066L467,644.046l-13.009,16.631a4.473,4.473,0,0,1-1.671,1.5,4.514,4.514,0,0,1-5.163-.73,3.722,3.722,0,0,1-1.426-2.9,4.213,4.213,0,0,1,1.081-2.952l14.76-18.4-15.155-19.088a4.5,4.5,0,0,1,.445-6.1,4.673,4.673,0,0,1,7.13.59l13.484,17.011,12.688-16.926a4.448,4.448,0,0,1,3.742-2.066,4.378,4.378,0,0,1,3.147,1.231,3.908,3.908,0,0,1,1.276,2.9,4.338,4.338,0,0,1-1.081,3.052l-14.56,18.4,14.955,19.013A3.948,3.948,0,0,1,488.746,657.92Z"
                transform="translate(-227.219 -311.216)" />
            <g transform="translate(172.181 281.798)">
                <path class="g"
                    d="M361.5,576.4a6.669,6.669,0,0,1,5-2.276,5.539,5.539,0,0,1,5.319,5.048,7.414,7.414,0,0,1-2.422,6.224c-1.616,1.6-3.377,3.052-5.068,4.573q-1.066.961-2.091,1.956a1,1,0,0,1-1.546.07c-2.372-2.146-4.788-4.248-7.1-6.454a7.625,7.625,0,0,1-2.6-6,5.569,5.569,0,0,1,8.411-4.663C360.1,575.311,360.737,575.856,361.5,576.4Z"
                    transform="translate(-350.981 -574.09)" />
            </g>
        </g>
    </g>
</svg>